{"title":"I Spit on Your Grave 2010 DVDrip English Klam","uid":10564880,"size":1752484365,"categoryP":"video","categoryS":"movies","magnet":"?xt=urn:btih:72e7b2e881742f76f8281e1a5fb45962cc0e8dff&amp;dn=I+Spit+on+Your+Grave+2010+DVDrip+English+Klam&amp;tr=udp%3A%2F%2Ftracker.openbittorrent.com%3A80&amp;tr=udp%3A%2F%2Fopen.demonii.com%3A1337&amp;tr=udp%3A%2F%2Ftracker.coppersurfer.tk%3A6969&amp;tr=udp%3A%2F%2Fexodus.desync.com%3A6969","seeders":4,"leechers":1,"uploader":"Klambake","files":-1,"time":1405508115,"description":"With: Sarah Butler, Daniel Franzese and Chad Lindberg\n\nEen schrijfster trekt zich voor haar nieuwste boek terug in een verlaten huisje in de bossen. Hier wordt ze op brute wijze overvallen en verkracht en voor dood achtergelaten. Weer bijgekomen besluit ze om wraak te nemen op de personen die haar hebben aangevallen. En voor deze wraak gaat ze niets uit de weg.\n\nA writer who is brutalized during her cabin retreat seeks revenge on her attackers, who left her for dead.\n &lt;a href=&quot;\nhttp://www.imdb.com/title/tt1242432&quot; rel=&quot;nofollow&quot; target=&quot;_NEW&quot;&gt;\nhttp://www.imdb.com/title/tt1242432&lt;/a&gt;\t\n\n--------------------- Dutch Friends 4ever ---------------------\n---------------------------------------------------------------\n- Bezoek ook eens mijn vrienden op: &lt;a href=&quot; http://www.Film-Test.nl&quot; rel=&quot;nofollow&quot; target=&quot;_NEW&quot;&gt; http://www.Film-Test.nl&lt;/a&gt; --\n----- voor mijn Nederlandse Sync. ondertitels ---- en meer ----\n------- http://www.Film-Test.nl ---- Over Films en meer -------\n---------------------------------------------------------------\n &lt;a href=&quot;\nhttp://i.imgur.com/smBPS9M.jpg&quot; rel=&quot;nofollow&quot; target=&quot;_NEW&quot;&gt;\nhttp://i.imgur.com/smBPS9M.jpg&lt;/a&gt; &lt;a href=&quot;\nhttp://i.imgur.com/GCuUA2w.jpg&quot; rel=&quot;nofollow&quot; target=&quot;_NEW&quot;&gt;\nhttp://i.imgur.com/GCuUA2w.jpg&lt;/a&gt; &lt;a href=&quot;\nhttp://i.imgur.com/NdMLeQW.jpg&quot; rel=&quot;nofollow&quot; target=&quot;_NEW&quot;&gt;\nhttp://i.imgur.com/NdMLeQW.jpg&lt;/a&gt;\n\nGeneral:\n\nComplete name                            : I Spit on Your GraveI Spit on Your Grave.avi\nFormat                                   : AVI\nFormat/Info                              : Audio Video Interleave\nFile size                                : 1.63 GiB\nDuration                                 : 1h 48mn\nOverall bit rate                         : 2 158 Kbps\n\nVideo:\n\nFormat                                   : MPEG-4 Visual\nFormat profile                           : Simple@L3\nFormat settings, BVOP                    : No\nFormat settings, QPel                    : No\nFormat settings, GMC                     : No warppoints\nFormat settings, Matrix                  : Default (H.263)\nCodec ID                                 : XVID\nCodec ID/Hint                            : XviD\nDuration                                 : 1h 48mn\nBit rate                                 : 1 700 Kbps\nWidth                                    : 720 pixels\nHeight                                   : 304 pixels\nDisplay aspect ratio                     : 2.35:1\nFrame rate                               : 23.976 fps\nColor space                              : YUV\nChroma subsampling                       : 4:2:0\nBit depth                                : 8 bits\nScan type                                : Progressive\nCompression mode                         : Lossy\nBits/(Pixel*Frame)                       : 0.324\nStream size                              : 1.29 GiB (79%)\nWriting library                          : XviD 1.1.2 (UTC 2006-11-01)\n\nAudio:\n\nFormat                                   : AC-3\nFormat/Info                              : Audio Coding 3\nMode extension                           : CM (complete main)\nFormat settings, Endianness              : Big\nCodec ID                                 : 2000\nDuration                                 : 1h 48mn\nSource duration                          : 1h 48mn\nBit rate mode                            : Constant\nBit rate                                 : 448 Kbps\nChannel(s)                               : 6 channels\nChannel positions                        : Front: L C R, Side: L R, LFE\nSampling rate                            : 48.0 KHz\nBit depth                                : 16 bits\nCompression mode                         : Lossy\nStream size                              : 347 MiB (21%)\nAlignment                                : Aligned on interleaves\nInterleave, duration                     : 32 ms (0.77 video frame)\n\n\n","torrent":{"xt":"urn:btih:72e7b2e881742f76f8281e1a5fb45962cc0e8dff","amp;dn":"I+Spit+on+Your+Grave+2010+DVDrip+English+Klam","amp;tr":["udp%3A%2F%2Ftracker.openbittorrent.com%3A80","udp%3A%2F%2Fopen.demonii.com%3A1337","udp%3A%2F%2Ftracker.coppersurfer.tk%3A6969","udp%3A%2F%2Fexodus.desync.com%3A6969"],"infoHash":"72e7b2e881742f76f8281e1a5fb45962cc0e8dff","infoHashBuffer":{"type":"Buffer","data":[114,231,178,232,129,116,47,118,248,40,30,26,95,180,89,98,204,14,141,255]},"announce":[],"urlList":[]}}